<svg xmlns="http://www.w3.org/2000/svg" xmlns:xlink="http://www.w3.org/1999/xlink" width="500" zoomAndPan="magnify" viewBox="0 0 375 374.999991" height="500" preserveAspectRatio="xMidYMid meet" version="1.2"><defs><linearGradient x1="0.0000104167" gradientTransform="matrix(0.75,0,0,0.75,0.0000045,0)" y1="499.99999" x2="499.99999" gradientUnits="userSpaceOnUse" y2="0.0000104167" id="c4c32a6ca6"><stop style="stop-color:#000b21;stop-opacity:1;" offset="0"/><stop style="stop-color:#000b21;stop-opacity:1;" offset="0.125"/><stop style="stop-color:#000b21;stop-opacity:1;" offset="0.140625"/><stop style="stop-color:#000b21;stop-opacity:1;" offset="0.148437"/><stop style="stop-color:#000c22;stop-opacity:1;" offset="0.152344"/><stop style="stop-color:#000c23;stop-opacity:1;" offset="0.15625"/><stop style="stop-color:#000d25;stop-opacity:1;" offset="0.160156"/><stop style="stop-color:#000e26;stop-opacity:1;" offset="0.164062"/><stop style="stop-color:#000f28;stop-opacity:1;" offset="0.167969"/><stop style="stop-color:#001029;stop-opacity:1;" offset="0.171875"/><stop style="stop-color:#00102b;stop-opacity:1;" offset="0.175781"/><stop style="stop-color:#00112c;stop-opacity:1;" offset="0.179687"/><stop style="stop-color:#00122e;stop-opacity:1;" offset="0.183594"/><stop style="stop-color:#00132f;stop-opacity:1;" offset="0.1875"/><stop style="stop-color:#001431;stop-opacity:1;" offset="0.191406"/><stop style="stop-color:#001433;stop-opacity:1;" offset="0.195312"/><stop style="stop-color:#001534;stop-opacity:1;" offset="0.199219"/><stop style="stop-color:#001636;stop-opacity:1;" offset="0.203125"/><stop style="stop-color:#001737;stop-opacity:1;" offset="0.207031"/><stop style="stop-color:#001839;stop-opacity:1;" offset="0.210938"/><stop style="stop-color:#00183a;stop-opacity:1;" offset="0.214844"/><stop style="stop-color:#00193c;stop-opacity:1;" offset="0.21875"/><stop style="stop-color:#001a3d;stop-opacity:1;" offset="0.222656"/><stop style="stop-color:#001b3f;stop-opacity:1;" offset="0.226562"/><stop style="stop-color:#001c40;stop-opacity:1;" offset="0.230469"/><stop style="stop-color:#001d42;stop-opacity:1;" offset="0.234375"/><stop style="stop-color:#001d43;stop-opacity:1;" offset="0.238281"/><stop style="stop-color:#001e45;stop-opacity:1;" offset="0.242188"/><stop style="stop-color:#001f46;stop-opacity:1;" offset="0.246094"/><stop style="stop-color:#002048;stop-opacity:1;" offset="0.25"/><stop style="stop-color:#002149;stop-opacity:1;" offset="0.253906"/><stop style="stop-color:#00214b;stop-opacity:1;" offset="0.257812"/><stop style="stop-color:#00224c;stop-opacity:1;" offset="0.261719"/><stop style="stop-color:#00234e;stop-opacity:1;" offset="0.265625"/><stop style="stop-color:#00244f;stop-opacity:1;" offset="0.269531"/><stop style="stop-color:#002551;stop-opacity:1;" offset="0.273437"/><stop style="stop-color:#002552;stop-opacity:1;" offset="0.277344"/><stop style="stop-color:#002654;stop-opacity:1;" offset="0.28125"/><stop style="stop-color:#002755;stop-opacity:1;" offset="0.285156"/><stop style="stop-color:#002857;stop-opacity:1;" offset="0.289062"/><stop style="stop-color:#002958;stop-opacity:1;" offset="0.292969"/><stop style="stop-color:#002a5a;stop-opacity:1;" offset="0.296875"/><stop style="stop-color:#002a5b;stop-opacity:1;" offset="0.300781"/><stop style="stop-color:#002b5d;stop-opacity:1;" offset="0.304687"/><stop style="stop-color:#002c5f;stop-opacity:1;" offset="0.308594"/><stop style="stop-color:#002d60;stop-opacity:1;" offset="0.3125"/><stop style="stop-color:#002e62;stop-opacity:1;" offset="0.316406"/><stop style="stop-color:#002e63;stop-opacity:1;" offset="0.320312"/><stop style="stop-color:#002f65;stop-opacity:1;" offset="0.324219"/><stop style="stop-color:#003066;stop-opacity:1;" offset="0.328125"/><stop style="stop-color:#003168;stop-opacity:1;" offset="0.332031"/><stop style="stop-color:#003269;stop-opacity:1;" offset="0.335937"/><stop style="stop-color:#00326b;stop-opacity:1;" offset="0.339844"/><stop style="stop-color:#00336c;stop-opacity:1;" offset="0.34375"/><stop style="stop-color:#00346e;stop-opacity:1;" offset="0.347656"/><stop style="stop-color:#00356f;stop-opacity:1;" offset="0.351562"/><stop style="stop-color:#003671;stop-opacity:1;" offset="0.355469"/><stop style="stop-color:#003772;stop-opacity:1;" offset="0.359375"/><stop style="stop-color:#003774;stop-opacity:1;" offset="0.363281"/><stop style="stop-color:#003875;stop-opacity:1;" offset="0.367187"/><stop style="stop-color:#003977;stop-opacity:1;" offset="0.371094"/><stop style="stop-color:#003a78;stop-opacity:1;" offset="0.375"/><stop style="stop-color:#003b7a;stop-opacity:1;" offset="0.378906"/><stop style="stop-color:#003b7b;stop-opacity:1;" offset="0.382812"/><stop style="stop-color:#003c7d;stop-opacity:1;" offset="0.386719"/><stop style="stop-color:#003d7e;stop-opacity:1;" offset="0.390625"/><stop style="stop-color:#003e80;stop-opacity:1;" offset="0.394531"/><stop style="stop-color:#003f81;stop-opacity:1;" offset="0.398438"/><stop style="stop-color:#014083;stop-opacity:1;" offset="0.402344"/><stop style="stop-color:#024284;stop-opacity:1;" offset="0.40625"/><stop style="stop-color:#044485;stop-opacity:1;" offset="0.410156"/><stop style="stop-color:#054686;stop-opacity:1;" offset="0.414062"/><stop style="stop-color:#074887;stop-opacity:1;" offset="0.417969"/><stop style="stop-color:#084a88;stop-opacity:1;" offset="0.421875"/><stop style="stop-color:#0a4c89;stop-opacity:1;" offset="0.425781"/><stop style="stop-color:#0b4e8a;stop-opacity:1;" offset="0.429688"/><stop style="stop-color:#0d508b;stop-opacity:1;" offset="0.433594"/><stop style="stop-color:#0e528c;stop-opacity:1;" offset="0.4375"/><stop style="stop-color:#10538d;stop-opacity:1;" offset="0.441406"/><stop style="stop-color:#11558e;stop-opacity:1;" offset="0.445312"/><stop style="stop-color:#13578f;stop-opacity:1;" offset="0.449219"/><stop style="stop-color:#145990;stop-opacity:1;" offset="0.453125"/><stop style="stop-color:#165b91;stop-opacity:1;" offset="0.457031"/><stop style="stop-color:#175d92;stop-opacity:1;" offset="0.460938"/><stop style="stop-color:#195f93;stop-opacity:1;" offset="0.464844"/><stop style="stop-color:#1a6194;stop-opacity:1;" offset="0.46875"/><stop style="stop-color:#1c6395;stop-opacity:1;" offset="0.472656"/><stop style="stop-color:#1d6596;stop-opacity:1;" offset="0.476562"/><stop style="stop-color:#1f6797;stop-opacity:1;" offset="0.480469"/><stop style="stop-color:#206998;stop-opacity:1;" offset="0.484375"/><stop style="stop-color:#226b99;stop-opacity:1;" offset="0.488281"/><stop style="stop-color:#236d9a;stop-opacity:1;" offset="0.492188"/><stop style="stop-color:#256f9b;stop-opacity:1;" offset="0.496094"/><stop style="stop-color:#26709c;stop-opacity:1;" offset="0.5"/><stop style="stop-color:#27729d;stop-opacity:1;" offset="0.503906"/><stop style="stop-color:#29749e;stop-opacity:1;" offset="0.507812"/><stop style="stop-color:#2a769f;stop-opacity:1;" offset="0.511719"/><stop style="stop-color:#2c78a0;stop-opacity:1;" offset="0.515625"/><stop style="stop-color:#2d7aa1;stop-opacity:1;" offset="0.519531"/><stop style="stop-color:#2f7ca2;stop-opacity:1;" offset="0.523438"/><stop style="stop-color:#307ea3;stop-opacity:1;" offset="0.527344"/><stop style="stop-color:#3280a4;stop-opacity:1;" offset="0.53125"/><stop style="stop-color:#3382a5;stop-opacity:1;" offset="0.535156"/><stop style="stop-color:#3584a6;stop-opacity:1;" offset="0.539062"/><stop style="stop-color:#3686a7;stop-opacity:1;" offset="0.542969"/><stop style="stop-color:#3888a7;stop-opacity:1;" offset="0.546875"/><stop style="stop-color:#398aa8;stop-opacity:1;" offset="0.550781"/><stop style="stop-color:#3b8ca9;stop-opacity:1;" offset="0.554688"/><stop style="stop-color:#3c8daa;stop-opacity:1;" offset="0.558594"/><stop style="stop-color:#3e8fab;stop-opacity:1;" offset="0.5625"/><stop style="stop-color:#3f91ac;stop-opacity:1;" offset="0.566406"/><stop style="stop-color:#4193ad;stop-opacity:1;" offset="0.570312"/><stop style="stop-color:#4295ae;stop-opacity:1;" offset="0.574219"/><stop style="stop-color:#4497af;stop-opacity:1;" offset="0.578125"/><stop style="stop-color:#4599b0;stop-opacity:1;" offset="0.582031"/><stop style="stop-color:#479bb1;stop-opacity:1;" offset="0.585938"/><stop style="stop-color:#489db2;stop-opacity:1;" offset="0.589844"/><stop style="stop-color:#4a9fb3;stop-opacity:1;" offset="0.59375"/><stop style="stop-color:#4ba1b4;stop-opacity:1;" offset="0.597656"/><stop style="stop-color:#4da2b5;stop-opacity:1;" offset="0.601562"/><stop style="stop-color:#50a3b4;stop-opacity:1;" offset="0.605469"/><stop style="stop-color:#53a4b3;stop-opacity:1;" offset="0.609375"/><stop style="stop-color:#55a4b2;stop-opacity:1;" offset="0.613281"/><stop style="stop-color:#58a5b1;stop-opacity:1;" offset="0.617188"/><stop style="stop-color:#5ba6b0;stop-opacity:1;" offset="0.621094"/><stop style="stop-color:#5ea7b0;stop-opacity:1;" offset="0.625"/><stop style="stop-color:#61a7af;stop-opacity:1;" offset="0.628906"/><stop style="stop-color:#63a8ae;stop-opacity:1;" offset="0.632812"/><stop style="stop-color:#66a9ad;stop-opacity:1;" offset="0.636719"/><stop style="stop-color:#69aaac;stop-opacity:1;" offset="0.640625"/><stop style="stop-color:#6cabab;stop-opacity:1;" offset="0.644531"/><stop style="stop-color:#6fabab;stop-opacity:1;" offset="0.648438"/><stop style="stop-color:#71acaa;stop-opacity:1;" offset="0.652344"/><stop style="stop-color:#74ada9;stop-opacity:1;" offset="0.65625"/><stop style="stop-color:#77aea8;stop-opacity:1;" offset="0.660156"/><stop style="stop-color:#7aaea7;stop-opacity:1;" offset="0.664062"/><stop style="stop-color:#7dafa6;stop-opacity:1;" offset="0.667969"/><stop style="stop-color:#7fb0a6;stop-opacity:1;" offset="0.671875"/><stop style="stop-color:#82b1a5;stop-opacity:1;" offset="0.675781"/><stop style="stop-color:#85b1a4;stop-opacity:1;" offset="0.679688"/><stop style="stop-color:#88b2a3;stop-opacity:1;" offset="0.683594"/><stop style="stop-color:#8bb3a2;stop-opacity:1;" offset="0.6875"/><stop style="stop-color:#8db4a1;stop-opacity:1;" offset="0.691406"/><stop style="stop-color:#90b4a0;stop-opacity:1;" offset="0.695312"/><stop style="stop-color:#93b5a0;stop-opacity:1;" offset="0.699219"/><stop style="stop-color:#96b69f;stop-opacity:1;" offset="0.703125"/><stop style="stop-color:#99b79e;stop-opacity:1;" offset="0.707031"/><stop style="stop-color:#9bb79d;stop-opacity:1;" offset="0.710938"/><stop style="stop-color:#9eb89c;stop-opacity:1;" offset="0.714844"/><stop style="stop-color:#a1b99b;stop-opacity:1;" offset="0.71875"/><stop style="stop-color:#a4ba9b;stop-opacity:1;" offset="0.722656"/><stop style="stop-color:#a7ba9a;stop-opacity:1;" offset="0.726562"/><stop style="stop-color:#a9bb99;stop-opacity:1;" offset="0.730469"/><stop style="stop-color:#acbc98;stop-opacity:1;" offset="0.734375"/><stop style="stop-color:#afbd97;stop-opacity:1;" offset="0.738281"/><stop style="stop-color:#b2bd96;stop-opacity:1;" offset="0.742188"/><stop style="stop-color:#b5be95;stop-opacity:1;" offset="0.746094"/><stop style="stop-color:#b7bf95;stop-opacity:1;" offset="0.75"/><stop style="stop-color:#bac094;stop-opacity:1;" offset="0.753906"/><stop style="stop-color:#bdc093;stop-opacity:1;" offset="0.757813"/><stop style="stop-color:#c0c192;stop-opacity:1;" offset="0.761719"/><stop style="stop-color:#c3c291;stop-opacity:1;" offset="0.765625"/><stop style="stop-color:#c5c390;stop-opacity:1;" offset="0.769531"/><stop style="stop-color:#c8c390;stop-opacity:1;" offset="0.773438"/><stop style="stop-color:#cbc48f;stop-opacity:1;" offset="0.777344"/><stop style="stop-color:#cec58e;stop-opacity:1;" offset="0.78125"/><stop style="stop-color:#d1c68d;stop-opacity:1;" offset="0.785156"/><stop style="stop-color:#d3c68c;stop-opacity:1;" offset="0.789063"/><stop style="stop-color:#d6c78b;stop-opacity:1;" offset="0.792969"/><stop style="stop-color:#d9c88a;stop-opacity:1;" offset="0.796875"/><stop style="stop-color:#dcc98a;stop-opacity:1;" offset="0.800781"/><stop style="stop-color:#dfc989;stop-opacity:1;" offset="0.804688"/><stop style="stop-color:#e1ca88;stop-opacity:1;" offset="0.808594"/><stop style="stop-color:#e4cb87;stop-opacity:1;" offset="0.8125"/><stop style="stop-color:#e7cc86;stop-opacity:1;" offset="0.816406"/><stop style="stop-color:#eacc85;stop-opacity:1;" offset="0.820313"/><stop style="stop-color:#edcd85;stop-opacity:1;" offset="0.824219"/><stop style="stop-color:#efce84;stop-opacity:1;" offset="0.828125"/><stop style="stop-color:#f2cf83;stop-opacity:1;" offset="0.832031"/><stop style="stop-color:#f5cf82;stop-opacity:1;" offset="0.835938"/><stop style="stop-color:#f8d081;stop-opacity:1;" offset="0.839844"/><stop style="stop-color:#fbd180;stop-opacity:1;" offset="0.84375"/><stop style="stop-color:#fdd280;stop-opacity:1;" offset="0.847656"/><stop style="stop-color:#ffd27f;stop-opacity:1;" offset="0.851563"/><stop style="stop-color:#ffd27f;stop-opacity:1;" offset="0.859375"/><stop style="stop-color:#ffd27f;stop-opacity:1;" offset="0.875"/><stop style="stop-color:#ffd27f;stop-opacity:1;" offset="1"/></linearGradient></defs><g id="b512f5bef1"><rect x="0" width="375" y="0" height="374.999991" style="fill:#ffffff;fill-opacity:1;stroke:none;"/><rect x="0" width="375" y="0" height="374.999991" style="fill:url(#c4c32a6ca6);stroke:none;"/><g style="fill:#ffffff;fill-opacity:1;"><g transform="translate(104.356696, 140.316012)"><path style="stroke:none" d="M 7.6875 0.171875 C 6.4375 0.171875 5.316406 -0.03125 4.328125 -0.4375 C 3.335938 -0.84375 2.546875 -1.441406 1.953125 -2.234375 C 1.367188 -3.035156 1.054688 -3.992188 1.015625 -5.109375 L 5.453125 -5.109375 C 5.515625 -4.472656 5.734375 -3.988281 6.109375 -3.65625 C 6.484375 -3.332031 6.972656 -3.171875 7.578125 -3.171875 C 8.191406 -3.171875 8.675781 -3.3125 9.03125 -3.59375 C 9.382812 -3.875 9.5625 -4.265625 9.5625 -4.765625 C 9.5625 -5.191406 9.421875 -5.539062 9.140625 -5.8125 C 8.859375 -6.09375 8.507812 -6.320312 8.09375 -6.5 C 7.675781 -6.675781 7.085938 -6.878906 6.328125 -7.109375 C 5.222656 -7.453125 4.320312 -7.789062 3.625 -8.125 C 2.925781 -8.46875 2.328125 -8.972656 1.828125 -9.640625 C 1.328125 -10.304688 1.078125 -11.175781 1.078125 -12.25 C 1.078125 -13.832031 1.648438 -15.070312 2.796875 -15.96875 C 3.953125 -16.875 5.453125 -17.328125 7.296875 -17.328125 C 9.179688 -17.328125 10.695312 -16.875 11.84375 -15.96875 C 13 -15.070312 13.617188 -13.820312 13.703125 -12.21875 L 9.203125 -12.21875 C 9.171875 -12.769531 8.96875 -13.203125 8.59375 -13.515625 C 8.21875 -13.835938 7.738281 -14 7.15625 -14 C 6.65625 -14 6.25 -13.863281 5.9375 -13.59375 C 5.632812 -13.320312 5.484375 -12.9375 5.484375 -12.4375 C 5.484375 -11.882812 5.738281 -11.453125 6.25 -11.140625 C 6.769531 -10.835938 7.582031 -10.507812 8.6875 -10.15625 C 9.789062 -9.78125 10.6875 -9.421875 11.375 -9.078125 C 12.070312 -8.734375 12.671875 -8.238281 13.171875 -7.59375 C 13.671875 -6.945312 13.921875 -6.113281 13.921875 -5.09375 C 13.921875 -4.113281 13.671875 -3.222656 13.171875 -2.421875 C 12.679688 -1.628906 11.960938 -1 11.015625 -0.53125 C 10.078125 -0.0625 8.96875 0.171875 7.6875 0.171875 Z M 7.6875 0.171875 "/></g></g><g style="fill:#ffffff;fill-opacity:1;"><g transform="translate(117.906832, 140.316012)"><path style="stroke:none" d="M 13.796875 -17.09375 L 13.796875 -13.75 L 9.28125 -13.75 L 9.28125 0 L 5.109375 0 L 5.109375 -13.75 L 0.578125 -13.75 L 0.578125 -17.09375 Z M 13.796875 -17.09375 "/></g></g><g style="fill:#ffffff;fill-opacity:1;"><g transform="translate(130.87309, 140.316012)"><path style="stroke:none" d="M 12.140625 -3.015625 L 5.765625 -3.015625 L 4.75 0 L 0.390625 0 L 6.578125 -17.09375 L 11.390625 -17.09375 L 17.578125 0 L 13.171875 0 Z M 11.078125 -6.234375 L 8.953125 -12.484375 L 6.859375 -6.234375 Z M 11.078125 -6.234375 "/></g></g><g style="fill:#ffffff;fill-opacity:1;"><g transform="translate(147.391262, 140.316012)"><path style="stroke:none" d="M 10.21875 0 L 6.671875 -6.453125 L 5.671875 -6.453125 L 5.671875 0 L 1.515625 0 L 1.515625 -17.09375 L 8.5 -17.09375 C 9.84375 -17.09375 10.988281 -16.851562 11.9375 -16.375 C 12.882812 -15.90625 13.59375 -15.257812 14.0625 -14.4375 C 14.539062 -13.625 14.78125 -12.710938 14.78125 -11.703125 C 14.78125 -10.566406 14.457031 -9.550781 13.8125 -8.65625 C 13.175781 -7.769531 12.234375 -7.140625 10.984375 -6.765625 L 14.921875 0 Z M 5.671875 -9.390625 L 8.25 -9.390625 C 9.007812 -9.390625 9.582031 -9.578125 9.96875 -9.953125 C 10.351562 -10.328125 10.546875 -10.851562 10.546875 -11.53125 C 10.546875 -12.1875 10.351562 -12.695312 9.96875 -13.0625 C 9.582031 -13.4375 9.007812 -13.625 8.25 -13.625 L 5.671875 -13.625 Z M 5.671875 -9.390625 "/></g></g><g style="fill:#ffffff;fill-opacity:1;"><g transform="translate(161.841544, 140.316012)"><path style="stroke:none" d="M 13.796875 -17.09375 L 13.796875 -13.75 L 9.28125 -13.75 L 9.28125 0 L 5.109375 0 L 5.109375 -13.75 L 0.578125 -13.75 L 0.578125 -17.09375 Z M 13.796875 -17.09375 "/></g></g><g style="fill:#ffffff;fill-opacity:1;"><g transform="translate(174.807802, 140.316012)"><path style="stroke:none" d=""/></g></g><g style="fill:#ffffff;fill-opacity:1;"><g transform="translate(178.553693, 140.316012)"><path style="stroke:none" d="M 13.796875 -17.09375 L 13.796875 -13.75 L 9.28125 -13.75 L 9.28125 0 L 5.109375 0 L 5.109375 -13.75 L 0.578125 -13.75 L 0.578125 -17.09375 Z M 13.796875 -17.09375 "/></g></g><g style="fill:#ffffff;fill-opacity:1;"><g transform="translate(191.519951, 140.316012)"><path style="stroke:none" d="M 10.21875 0 L 6.671875 -6.453125 L 5.671875 -6.453125 L 5.671875 0 L 1.515625 0 L 1.515625 -17.09375 L 8.5 -17.09375 C 9.84375 -17.09375 10.988281 -16.851562 11.9375 -16.375 C 12.882812 -15.90625 13.59375 -15.257812 14.0625 -14.4375 C 14.539062 -13.625 14.78125 -12.710938 14.78125 -11.703125 C 14.78125 -10.566406 14.457031 -9.550781 13.8125 -8.65625 C 13.175781 -7.769531 12.234375 -7.140625 10.984375 -6.765625 L 14.921875 0 Z M 5.671875 -9.390625 L 8.25 -9.390625 C 9.007812 -9.390625 9.582031 -9.578125 9.96875 -9.953125 C 10.351562 -10.328125 10.546875 -10.851562 10.546875 -11.53125 C 10.546875 -12.1875 10.351562 -12.695312 9.96875 -13.0625 C 9.582031 -13.4375 9.007812 -13.625 8.25 -13.625 L 5.671875 -13.625 Z M 5.671875 -9.390625 "/></g></g><g style="fill:#ffffff;fill-opacity:1;"><g transform="translate(205.970233, 140.316012)"><path style="stroke:none" d="M 12.140625 -3.015625 L 5.765625 -3.015625 L 4.75 0 L 0.390625 0 L 6.578125 -17.09375 L 11.390625 -17.09375 L 17.578125 0 L 13.171875 0 Z M 11.078125 -6.234375 L 8.953125 -12.484375 L 6.859375 -6.234375 Z M 11.078125 -6.234375 "/></g></g><g style="fill:#ffffff;fill-opacity:1;"><g transform="translate(222.488405, 140.316012)"><path style="stroke:none" d="M 7.90625 -17.09375 C 9.707031 -17.09375 11.28125 -16.734375 12.625 -16.015625 C 13.976562 -15.304688 15.023438 -14.304688 15.765625 -13.015625 C 16.503906 -11.722656 16.875 -10.234375 16.875 -8.546875 C 16.875 -6.867188 16.503906 -5.378906 15.765625 -4.078125 C 15.023438 -2.785156 13.976562 -1.78125 12.625 -1.0625 C 11.269531 -0.351562 9.695312 0 7.90625 0 L 1.515625 0 L 1.515625 -17.09375 Z M 7.640625 -3.609375 C 9.210938 -3.609375 10.4375 -4.035156 11.3125 -4.890625 C 12.195312 -5.753906 12.640625 -6.972656 12.640625 -8.546875 C 12.640625 -10.117188 12.195312 -11.34375 11.3125 -12.21875 C 10.4375 -13.09375 9.210938 -13.53125 7.640625 -13.53125 L 5.671875 -13.53125 L 5.671875 -3.609375 Z M 7.640625 -3.609375 "/></g></g><g style="fill:#ffffff;fill-opacity:1;"><g transform="translate(238.763299, 140.316012)"><path style="stroke:none" d="M 5.671875 -17.09375 L 5.671875 0 L 1.515625 0 L 1.515625 -17.09375 Z M 5.671875 -17.09375 "/></g></g><g style="fill:#ffffff;fill-opacity:1;"><g transform="translate(244.52842, 140.316012)"><path style="stroke:none" d="M 16.796875 0 L 12.640625 0 L 5.671875 -10.546875 L 5.671875 0 L 1.515625 0 L 1.515625 -17.09375 L 5.671875 -17.09375 L 12.640625 -6.5 L 12.640625 -17.09375 L 16.796875 -17.09375 Z M 16.796875 0 "/></g></g><g style="fill:#ffffff;fill-opacity:1;"><g transform="translate(261.411521, 140.316012)"><path style="stroke:none" d="M 12.859375 -11.6875 C 12.546875 -12.25 12.097656 -12.679688 11.515625 -12.984375 C 10.941406 -13.285156 10.269531 -13.4375 9.5 -13.4375 C 8.144531 -13.4375 7.0625 -12.992188 6.25 -12.109375 C 5.445312 -11.222656 5.046875 -10.039062 5.046875 -8.5625 C 5.046875 -6.988281 5.46875 -5.757812 6.3125 -4.875 C 7.164062 -3.988281 8.335938 -3.546875 9.828125 -3.546875 C 10.859375 -3.546875 11.722656 -3.804688 12.421875 -4.328125 C 13.128906 -4.847656 13.644531 -5.597656 13.96875 -6.578125 L 8.6875 -6.578125 L 8.6875 -9.640625 L 17.75 -9.640625 L 17.75 -5.765625 C 17.4375 -4.734375 16.910156 -3.769531 16.171875 -2.875 C 15.429688 -1.976562 14.492188 -1.253906 13.359375 -0.703125 C 12.222656 -0.148438 10.941406 0.125 9.515625 0.125 C 7.828125 0.125 6.320312 -0.242188 5 -0.984375 C 3.675781 -1.722656 2.644531 -2.75 1.90625 -4.0625 C 1.164062 -5.375 0.796875 -6.875 0.796875 -8.5625 C 0.796875 -10.25 1.164062 -11.753906 1.90625 -13.078125 C 2.644531 -14.398438 3.671875 -15.429688 4.984375 -16.171875 C 6.304688 -16.910156 7.8125 -17.28125 9.5 -17.28125 C 11.539062 -17.28125 13.257812 -16.785156 14.65625 -15.796875 C 16.0625 -14.804688 16.992188 -13.4375 17.453125 -11.6875 Z M 12.859375 -11.6875 "/></g></g><g style="fill:#ffffff;fill-opacity:1;"><g transform="translate(162.059817, 174.06601)"><path style="stroke:none" d="M 16.796875 0 L 12.640625 0 L 5.671875 -10.546875 L 5.671875 0 L 1.515625 0 L 1.515625 -17.09375 L 5.671875 -17.09375 L 12.640625 -6.5 L 12.640625 -17.09375 L 16.796875 -17.09375 Z M 16.796875 0 "/></g></g><g style="fill:#ffffff;fill-opacity:1;"><g transform="translate(178.942918, 174.06601)"><path style="stroke:none" d="M 9.59375 0.171875 C 7.988281 0.171875 6.515625 -0.195312 5.171875 -0.9375 C 3.835938 -1.6875 2.773438 -2.726562 1.984375 -4.0625 C 1.191406 -5.40625 0.796875 -6.914062 0.796875 -8.59375 C 0.796875 -10.257812 1.191406 -11.757812 1.984375 -13.09375 C 2.773438 -14.425781 3.835938 -15.460938 5.171875 -16.203125 C 6.515625 -16.953125 7.988281 -17.328125 9.59375 -17.328125 C 11.195312 -17.328125 12.664062 -16.953125 14 -16.203125 C 15.34375 -15.460938 16.398438 -14.425781 17.171875 -13.09375 C 17.941406 -11.757812 18.328125 -10.257812 18.328125 -8.59375 C 18.328125 -6.914062 17.9375 -5.40625 17.15625 -4.0625 C 16.382812 -2.726562 15.332031 -1.6875 14 -0.9375 C 12.664062 -0.195312 11.195312 0.171875 9.59375 0.171875 Z M 9.59375 -3.625 C 10.957031 -3.625 12.046875 -4.078125 12.859375 -4.984375 C 13.679688 -5.898438 14.09375 -7.101562 14.09375 -8.59375 C 14.09375 -10.101562 13.679688 -11.304688 12.859375 -12.203125 C 12.046875 -13.109375 10.957031 -13.5625 9.59375 -13.5625 C 8.207031 -13.5625 7.101562 -13.113281 6.28125 -12.21875 C 5.46875 -11.320312 5.0625 -10.113281 5.0625 -8.59375 C 5.0625 -7.082031 5.46875 -5.875 6.28125 -4.96875 C 7.101562 -4.070312 8.207031 -3.625 9.59375 -3.625 Z M 9.59375 -3.625 "/></g></g><g style="fill:#ffffff;fill-opacity:1;"><g transform="translate(196.653176, 174.06601)"><path style="stroke:none" d="M 25.03125 -17.09375 L 20.578125 0 L 15.53125 0 L 12.8125 -11.25 L 9.984375 0 L 4.9375 0 L 0.609375 -17.09375 L 5.0625 -17.09375 L 7.515625 -4.65625 L 10.5625 -17.09375 L 15.140625 -17.09375 L 18.0625 -4.65625 L 20.546875 -17.09375 Z M 25.03125 -17.09375 "/></g></g><g style="fill:#ffffff;fill-opacity:1;"><g transform="translate(170.388766, 194.848156)"><path style="stroke:none" d="M 0.84375 -6.3125 L 3.609375 -6.3125 C 4.273438 -6.3125 4.867188 -6.179688 5.390625 -5.921875 C 5.921875 -5.660156 6.328125 -5.289062 6.609375 -4.8125 C 6.898438 -4.332031 7.046875 -3.78125 7.046875 -3.15625 C 7.046875 -2.53125 6.898438 -1.976562 6.609375 -1.5 C 6.328125 -1.019531 5.921875 -0.648438 5.390625 -0.390625 C 4.867188 -0.128906 4.273438 0 3.609375 0 L 0.84375 0 Z M 3.546875 -0.984375 C 4.015625 -0.984375 4.421875 -1.070312 4.765625 -1.25 C 5.117188 -1.4375 5.390625 -1.691406 5.578125 -2.015625 C 5.773438 -2.335938 5.875 -2.71875 5.875 -3.15625 C 5.875 -3.582031 5.773438 -3.957031 5.578125 -4.28125 C 5.390625 -4.613281 5.117188 -4.867188 4.765625 -5.046875 C 4.421875 -5.222656 4.015625 -5.3125 3.546875 -5.3125 L 2.015625 -5.3125 L 2.015625 -0.984375 Z M 3.546875 -0.984375 "/></g></g><g style="fill:#ffffff;fill-opacity:1;"><g transform="translate(182.449773, 194.848156)"><path style="stroke:none" d="M 5.578125 -0.984375 L 5.578125 0 L 0.84375 0 L 0.84375 -6.3125 L 5.453125 -6.3125 L 5.453125 -5.328125 L 2.015625 -5.328125 L 2.015625 -3.6875 L 5.0625 -3.6875 L 5.0625 -2.71875 L 2.015625 -2.71875 L 2.015625 -0.984375 Z M 5.578125 -0.984375 "/></g></g><g style="fill:#ffffff;fill-opacity:1;"><g transform="translate(193.104966, 194.848156)"><path style="stroke:none" d="M 6.640625 0 L 6.640625 -4.1875 L 4.5625 -0.71875 L 4.03125 -0.71875 L 1.96875 -4.125 L 1.96875 0 L 0.84375 0 L 0.84375 -6.3125 L 1.8125 -6.3125 L 4.3125 -2.125 L 6.78125 -6.3125 L 7.75 -6.3125 L 7.75 0 Z M 6.640625 0 "/></g></g><g style="fill:#ffffff;fill-opacity:1;"><g transform="translate(206.328487, 194.848156)"><path style="stroke:none" d="M 3.796875 0.09375 C 3.148438 0.09375 2.566406 -0.046875 2.046875 -0.328125 C 1.535156 -0.609375 1.128906 -0.992188 0.828125 -1.484375 C 0.535156 -1.984375 0.390625 -2.539062 0.390625 -3.15625 C 0.390625 -3.769531 0.535156 -4.320312 0.828125 -4.8125 C 1.128906 -5.3125 1.535156 -5.703125 2.046875 -5.984375 C 2.566406 -6.265625 3.148438 -6.40625 3.796875 -6.40625 C 4.441406 -6.40625 5.019531 -6.265625 5.53125 -5.984375 C 6.050781 -5.703125 6.457031 -5.3125 6.75 -4.8125 C 7.039062 -4.320312 7.1875 -3.769531 7.1875 -3.15625 C 7.1875 -2.539062 7.039062 -1.984375 6.75 -1.484375 C 6.457031 -0.992188 6.050781 -0.609375 5.53125 -0.328125 C 5.019531 -0.046875 4.441406 0.09375 3.796875 0.09375 Z M 3.796875 -0.9375 C 4.210938 -0.9375 4.585938 -1.03125 4.921875 -1.21875 C 5.265625 -1.40625 5.53125 -1.671875 5.71875 -2.015625 C 5.914062 -2.359375 6.015625 -2.738281 6.015625 -3.15625 C 6.015625 -3.570312 5.914062 -3.953125 5.71875 -4.296875 C 5.53125 -4.640625 5.265625 -4.90625 4.921875 -5.09375 C 4.585938 -5.28125 4.210938 -5.375 3.796875 -5.375 C 3.378906 -5.375 3 -5.28125 2.65625 -5.09375 C 2.320312 -4.90625 2.054688 -4.640625 1.859375 -4.296875 C 1.671875 -3.953125 1.578125 -3.570312 1.578125 -3.15625 C 1.578125 -2.738281 1.671875 -2.359375 1.859375 -2.015625 C 2.054688 -1.671875 2.320312 -1.40625 2.65625 -1.21875 C 3 -1.03125 3.378906 -0.9375 3.796875 -0.9375 Z M 3.796875 -0.9375 "/></g></g></g></svg>